<svg xmlns="http://www.w3.org/2000/svg" xmlns:xlink="http://www.w3.org/1999/xlink" width="886pt" height="1038pt" viewBox="0.00 0.00 885.69 1038.40">
<g id="graph0" class="graph" transform="scale(1 1) rotate(0) translate(4 1034.4)">
<title>dil_db</title>
<polygon fill="white" stroke="none" points="-4,4 -4,-1034.4 881.69,-1034.4 881.69,4 -4,4"/>
<!-- addresses -->
<g id="node1" class="node">
<title>addresses</title>
<polygon fill="#8dd3c7" stroke="black" points="260.99,-335.5 260.99,-485.9 401.01,-485.9 401.01,-335.5 260.99,-335.5"/>
<text text-anchor="middle" x="331" y="-469.3" font-family="Times,serif" font-size="14.00">Address</text>
<polyline fill="none" stroke="black" points="260.99,-461.1 401.01,-461.1"/>
<text text-anchor="start" x="268.99" y="-444.5" font-family="Times,serif" font-size="14.00">label : varchar</text>
<text text-anchor="start" x="268.99" y="-427.7" font-family="Times,serif" font-size="14.00"> city_label : varchar</text>
<text text-anchor="start" x="268.99" y="-410.9" font-family="Times,serif" font-size="14.00"> city_id : integer</text>
<text text-anchor="start" x="268.99" y="-394.1" font-family="Times,serif" font-size="14.00"> created_at : datetime</text>
<text text-anchor="start" x="268.99" y="-377.3" font-family="Times,serif" font-size="14.00"> updated_at : datetime</text>
<text text-anchor="start" x="268.99" y="-360.5" font-family="Times,serif" font-size="14.00"> last_editor : varchar</text>
<text text-anchor="start" x="268.99" y="-343.7" font-family="Times,serif" font-size="14.00"> _id_dil : varchar(25)</text>
</g>
<!-- cities -->
<g id="node2" class="node">
<title>cities</title>
<polygon fill="#ffffb3" stroke="black" points="236.89,-0.5 236.89,-201.3 425.11,-201.3 425.11,-0.5 236.89,-0.5"/>
<text text-anchor="middle" x="331" y="-184.7" font-family="Times,serif" font-size="14.00">City</text>
<polyline fill="none" stroke="black" points="236.89,-176.5 425.11,-176.5"/>
<text text-anchor="start" x="244.89" y="-159.9" font-family="Times,serif" font-size="14.00">label : varchar</text>
<text text-anchor="start" x="244.89" y="-143.1" font-family="Times,serif" font-size="14.00"> country_iso_code : varchar(2)</text>
<text text-anchor="start" x="244.89" y="-126.3" font-family="Times,serif" font-size="14.00"> long_lat : varchar</text>
<text text-anchor="start" x="244.89" y="-109.5" font-family="Times,serif" font-size="14.00"> insee_fr_code : varchar</text>
<text text-anchor="start" x="244.89" y="-92.7" font-family="Times,serif" font-size="14.00"> geoname_id : varchar</text>
<text text-anchor="start" x="244.89" y="-75.9" font-family="Times,serif" font-size="14.00"> wikidata_item_id : varchar</text>
<text text-anchor="start" x="244.89" y="-59.1" font-family="Times,serif" font-size="14.00"> created_at : datetime</text>
<text text-anchor="start" x="244.89" y="-42.3" font-family="Times,serif" font-size="14.00"> updated_at : datetime</text>
<text text-anchor="start" x="244.89" y="-25.5" font-family="Times,serif" font-size="14.00"> last_editor : varchar</text>
<text text-anchor="start" x="244.89" y="-8.7" font-family="Times,serif" font-size="14.00"> _id_dil : varchar(25)</text>
</g>
<!-- addresses&#45;&gt;cities -->
<g id="edge1" class="edge">
<title>addresses-&gt;cities</title>
<path fill="none" stroke="#33a02c" d="M331,-323.8C331,-323.8 331,-213.11 331,-213.11"/>
<polygon fill="#33a02c" stroke="#33a02c" points="327.5,-323.8 331,-333.8 334.5,-323.8 327.5,-323.8"/>
<polygon fill="#33a02c" stroke="#33a02c" points="334.5,-213.11 331,-203.11 327.5,-213.11 334.5,-213.11"/>
<text text-anchor="middle" x="364.64" y="-260" font-family="Times,serif" font-size="14.00">city_id → id</text>
</g>
<!-- images -->
<g id="node3" class="node">
<title>images</title>
<polygon fill="#bebada" stroke="black" points="446.52,-636.9 446.52,-787.3 593.48,-787.3 593.48,-636.9 446.52,-636.9"/>
<text text-anchor="middle" x="520" y="-770.7" font-family="Times,serif" font-size="14.00">Image</text>
<polyline fill="none" stroke="black" points="446.52,-762.5 593.48,-762.5"/>
<text text-anchor="start" x="454.52" y="-745.9" font-family="Times,serif" font-size="14.00">label : varchar</text>
<text text-anchor="start" x="454.52" y="-729.1" font-family="Times,serif" font-size="14.00"> reference_url : varchar</text>
<text text-anchor="start" x="454.52" y="-712.3" font-family="Times,serif" font-size="14.00"> iiif_url : varchar</text>
<text text-anchor="start" x="454.52" y="-695.5" font-family="Times,serif" font-size="14.00"> created_at : datetime</text>
<text text-anchor="start" x="454.52" y="-678.7" font-family="Times,serif" font-size="14.00"> updated_at : datetime</text>
<text text-anchor="start" x="454.52" y="-661.9" font-family="Times,serif" font-size="14.00"> last_editor : varchar</text>
<text text-anchor="start" x="454.52" y="-645.1" font-family="Times,serif" font-size="14.00"> _id_dil : varchar(25)</text>
</g>
<!-- patents -->
<g id="node4" class="node">
<title>patents</title>
<polygon fill="#fb8072" stroke="black" points="105.99,-620.1 105.99,-804.1 246.01,-804.1 246.01,-620.1 105.99,-620.1"/>
<text text-anchor="middle" x="176" y="-787.5" font-family="Times,serif" font-size="14.00">Patent</text>
<polyline fill="none" stroke="black" points="105.99,-779.3 246.01,-779.3"/>
<text text-anchor="start" x="113.99" y="-762.7" font-family="Times,serif" font-size="14.00">drupal_nid : integer</text>
<text text-anchor="start" x="113.99" y="-745.9" font-family="Times,serif" font-size="14.00"> person_id : integer</text>
<text text-anchor="start" x="113.99" y="-729.1" font-family="Times,serif" font-size="14.00"> city_id : integer</text>
<text text-anchor="start" x="113.99" y="-712.3" font-family="Times,serif" font-size="14.00"> date_start : varchar</text>
<text text-anchor="start" x="113.99" y="-695.5" font-family="Times,serif" font-size="14.00"> date_end : varchar</text>
<text text-anchor="start" x="113.99" y="-678.7" font-family="Times,serif" font-size="14.00"> created_at : datetime</text>
<text text-anchor="start" x="113.99" y="-661.9" font-family="Times,serif" font-size="14.00"> updated_at : datetime</text>
<text text-anchor="start" x="113.99" y="-645.1" font-family="Times,serif" font-size="14.00"> last_editor : varchar</text>
<text text-anchor="start" x="113.99" y="-628.3" font-family="Times,serif" font-size="14.00"> _id_dil : varchar(25)</text>
</g>
<!-- patents&#45;&gt;cities -->
<g id="edge9" class="edge">
<title>patents-&gt;cities</title>
<path fill="none" stroke="#33a02c" d="M239.93,-608.09C239.93,-608.09 239.93,-213.11 239.93,-213.11"/>
<polygon fill="#33a02c" stroke="#33a02c" points="236.43,-608.09 239.93,-618.09 243.43,-608.09 236.43,-608.09"/>
<polygon fill="#33a02c" stroke="#33a02c" points="243.43,-213.11 239.93,-203.11 236.43,-213.11 243.43,-213.11"/>
<text text-anchor="middle" x="209.64" y="-406.5" font-family="Times,serif" font-size="14.00">city_id → id</text>
</g>
<!-- persons -->
<g id="node5" class="node">
<title>persons</title>
<polygon fill="#80b1d3" stroke="black" points="419.21,-327.1 419.21,-494.3 560.79,-494.3 560.79,-327.1 419.21,-327.1"/>
<text text-anchor="middle" x="490" y="-477.7" font-family="Times,serif" font-size="14.00">Person</text>
<polyline fill="none" stroke="black" points="419.21,-469.5 560.79,-469.5"/>
<text text-anchor="start" x="427.21" y="-452.9" font-family="Times,serif" font-size="14.00">lastname : varchar</text>
<text text-anchor="start" x="427.21" y="-436.1" font-family="Times,serif" font-size="14.00"> firstnames : varchar</text>
<text text-anchor="start" x="427.21" y="-419.3" font-family="Times,serif" font-size="14.00"> birth_date : varchar</text>
<text text-anchor="start" x="427.21" y="-402.5" font-family="Times,serif" font-size="14.00"> birth_city_id : integer</text>
<text text-anchor="start" x="427.21" y="-385.7" font-family="Times,serif" font-size="14.00"> created_at : datetime</text>
<text text-anchor="start" x="427.21" y="-368.9" font-family="Times,serif" font-size="14.00"> updated_at : datetime</text>
<text text-anchor="start" x="427.21" y="-352.1" font-family="Times,serif" font-size="14.00"> last_editor : varchar</text>
<text text-anchor="start" x="427.21" y="-335.3" font-family="Times,serif" font-size="14.00"> _id_dil : varchar(25)</text>
</g>
<!-- patents&#45;&gt;persons -->
<g id="edge10" class="edge">
<title>patents-&gt;persons</title>
<path fill="none" stroke="#33a02c" d="M242.97,-608.25C242.97,-608.25 242.97,-490.6 242.97,-490.6 242.97,-490.6 407.37,-490.6 407.37,-490.6"/>
<polygon fill="#33a02c" stroke="#33a02c" points="239.47,-608.25 242.97,-618.25 246.47,-608.25 239.47,-608.25"/>
<polygon fill="#33a02c" stroke="#33a02c" points="407.37,-494.1 417.37,-490.6 407.37,-487.1 407.37,-494.1"/>
<text text-anchor="middle" x="257.8" y="-553" font-family="Times,serif" font-size="14.00">person_id → id</text>
</g>
<!-- persons&#45;&gt;cities -->
<g id="edge13" class="edge">
<title>persons-&gt;cities</title>
<path fill="none" stroke="#fb9a99" d="M410.99,-330.8C410.99,-330.8 410.11,-330.8 410.11,-330.8 410.11,-330.8 410.11,-213.25 410.11,-213.25"/>
<polygon fill="#fb9a99" stroke="#fb9a99" points="407.45,-334.3 417.45,-330.8 407.45,-327.3 407.45,-334.3"/>
<polygon fill="#fb9a99" stroke="#fb9a99" points="413.61,-213.25 410.11,-203.25 406.61,-213.25 413.61,-213.25"/>
<text text-anchor="middle" x="505.36" y="-260" font-family="Times,serif" font-size="14.00">birth_city_id → id</text>
</g>
<!-- patent_has_addresses -->
<g id="node6" class="node">
<title>patent_has_addresses</title>
<polygon fill="#fdb462" stroke="black" points="5.95,-938.3 5.95,-1021.5 170.05,-1021.5 170.05,-938.3 5.95,-938.3"/>
<text text-anchor="middle" x="88" y="-1004.9" font-family="Times,serif" font-size="14.00">Patent_has_addresses</text>
<polyline fill="none" stroke="black" points="5.95,-996.7 170.05,-996.7"/>
<text text-anchor="start" x="13.95" y="-980.1" font-family="Times,serif" font-size="14.00">patent_id : integer</text>
<text text-anchor="start" x="13.95" y="-963.3" font-family="Times,serif" font-size="14.00"> address_id : integer</text>
<text text-anchor="start" x="13.95" y="-946.5" font-family="Times,serif" font-size="14.00"> date_occupation : varchar</text>
</g>
<!-- patent_has_addresses&#45;&gt;addresses -->
<g id="edge2" class="edge">
<title>patent_has_addresses-&gt;addresses</title>
<path fill="none" stroke="#e31a1c" d="M55.97,-926.53C55.97,-926.53 55.97,-410.7 55.97,-410.7 55.97,-410.7 249.02,-410.7 249.02,-410.7"/>
<polygon fill="#e31a1c" stroke="#e31a1c" points="52.47,-926.53 55.97,-936.53 59.47,-926.53 52.47,-926.53"/>
<polygon fill="#e31a1c" stroke="#e31a1c" points="249.02,-414.2 259.02,-410.7 249.02,-407.2 249.02,-414.2"/>
<text text-anchor="middle" x="44.13" y="-707.9" font-family="Times,serif" font-size="14.00">address_id → id</text>
</g>
<!-- patent_has_addresses&#45;&gt;patents -->
<g id="edge3" class="edge">
<title>patent_has_addresses-&gt;patents</title>
<path fill="none" stroke="#e31a1c" d="M138.02,-926.54C138.02,-926.54 138.02,-815.87 138.02,-815.87"/>
<polygon fill="#e31a1c" stroke="#e31a1c" points="134.52,-926.54 138.02,-936.54 141.52,-926.54 134.52,-926.54"/>
<polygon fill="#e31a1c" stroke="#e31a1c" points="141.52,-815.87 138.02,-805.87 134.52,-815.87 141.52,-815.87"/>
<text text-anchor="middle" x="154.24" y="-862.8" font-family="Times,serif" font-size="14.00">patent_id → id</text>
</g>
<!-- patent_has_images -->
<g id="node7" class="node">
<title>patent_has_images</title>
<polygon fill="#b3de69" stroke="black" points="277.43,-938.3 277.43,-1021.5 406.57,-1021.5 406.57,-938.3 277.43,-938.3"/>
<text text-anchor="middle" x="342" y="-1004.9" font-family="Times,serif" font-size="14.00">Patent_has_images</text>
<polyline fill="none" stroke="black" points="277.43,-996.7 406.57,-996.7"/>
<text text-anchor="start" x="285.43" y="-980.1" font-family="Times,serif" font-size="14.00">patent_id : integer</text>
<text text-anchor="start" x="285.43" y="-963.3" font-family="Times,serif" font-size="14.00"> image_id : integer</text>
<text text-anchor="start" x="285.43" y="-946.5" font-family="Times,serif" font-size="14.00"> is_pinned : boolean</text>
</g>
<!-- patent_has_images&#45;&gt;images -->
<g id="edge4" class="edge">
<title>patent_has_images-&gt;images</title>
<path fill="none" stroke="#fdbf6f" d="M363.52,-926.36C363.52,-926.36 363.52,-771 363.52,-771 363.52,-771 434.83,-771 434.83,-771"/>
<polygon fill="#fdbf6f" stroke="#fdbf6f" points="360.02,-926.36 363.52,-936.36 367.02,-926.36 360.02,-926.36"/>
<polygon fill="#fdbf6f" stroke="#fdbf6f" points="434.83,-774.5 444.83,-771 434.83,-767.5 434.83,-774.5"/>
<text text-anchor="middle" x="471.24" y="-862.8" font-family="Times,serif" font-size="14.00">image_id → id</text>
</g>
<!-- patent_has_images&#45;&gt;patents -->
<g id="edge5" class="edge">
<title>patent_has_images-&gt;patents</title>
<path fill="none" stroke="#fdbf6f" d="M320.48,-926.43C320.48,-926.43 320.48,-799 320.48,-799 320.48,-799 257.64,-799 257.64,-799"/>
<polygon fill="#fdbf6f" stroke="#fdbf6f" points="316.98,-926.43 320.48,-936.43 323.98,-926.43 316.98,-926.43"/>
<polygon fill="#fdbf6f" stroke="#fdbf6f" points="257.64,-795.5 247.64,-799 257.64,-802.5 257.64,-795.5"/>
<text text-anchor="middle" x="277.24" y="-862.8" font-family="Times,serif" font-size="14.00">patent_id → id</text>
</g>
<!-- patent_has_relations -->
<g id="node8" class="node">
<title>patent_has_relations</title>
<polygon fill="#fccde5" stroke="black" points="544.22,-929.9 544.22,-1029.9 713.78,-1029.9 713.78,-929.9 544.22,-929.9"/>
<text text-anchor="middle" x="629" y="-1013.3" font-family="Times,serif" font-size="14.00">Patent_has_relations</text>
<polyline fill="none" stroke="black" points="544.22,-1005.1 713.78,-1005.1"/>
<text text-anchor="start" x="552.22" y="-988.5" font-family="Times,serif" font-size="14.00">patent_id : integer</text>
<text text-anchor="start" x="552.22" y="-971.7" font-family="Times,serif" font-size="14.00"> person_id : integer</text>
<text text-anchor="start" x="552.22" y="-954.9" font-family="Times,serif" font-size="14.00"> person_related_id : integer</text>
<text text-anchor="start" x="552.22" y="-938.1" font-family="Times,serif" font-size="14.00"> type : varchar(11)</text>
</g>
<!-- patent_has_relations&#45;&gt;patents -->
<g id="edge6" class="edge">
<title>patent_has_relations-&gt;patents</title>
<path fill="none" stroke="#ff7f00" d="M568.85,-917.92C568.85,-917.92 568.85,-793.4 568.85,-793.4 568.85,-793.4 257.75,-793.4 257.75,-793.4"/>
<polygon fill="#ff7f00" stroke="#ff7f00" points="565.35,-917.92 568.85,-927.92 572.35,-917.92 565.35,-917.92"/>
<polygon fill="#ff7f00" stroke="#ff7f00" points="257.75,-789.9 247.75,-793.4 257.75,-796.9 257.75,-789.9"/>
<text text-anchor="middle" x="574.24" y="-862.8" font-family="Times,serif" font-size="14.00">patent_id → id</text>
</g>
<!-- patent_has_relations&#45;&gt;persons -->
<g id="edge7" class="edge">
<title>patent_has_relations-&gt;persons</title>
<path fill="none" stroke="#ff7f00" d="M532.33,-935C532.33,-935 434.2,-935 434.2,-935 434.2,-935 434.2,-506.16 434.2,-506.16"/>
<polygon fill="#ff7f00" stroke="#ff7f00" points="532.33,-938.5 542.33,-935 532.33,-931.5 532.33,-938.5"/>
<polygon fill="#ff7f00" stroke="#ff7f00" points="437.7,-506.16 434.2,-496.16 430.7,-506.16 437.7,-506.16"/>
<text text-anchor="middle" x="670.8" y="-707.9" font-family="Times,serif" font-size="14.00">person_id → id</text>
</g>
<!-- patent_has_relations&#45;&gt;persons -->
<g id="edge8" class="edge">
<title>patent_has_relations-&gt;persons</title>
<path fill="none" stroke="#ff7f00" d="M532.27,-932.2C532.27,-932.2 440.36,-932.2 440.36,-932.2 440.36,-932.2 440.36,-506.29 440.36,-506.29"/>
<polygon fill="#ff7f00" stroke="#ff7f00" points="532.27,-935.7 542.27,-932.2 532.27,-928.7 532.27,-935.7"/>
<polygon fill="#ff7f00" stroke="#ff7f00" points="443.86,-506.29 440.36,-496.29 436.86,-506.29 443.86,-506.29"/>
<text text-anchor="middle" x="813.34" y="-707.9" font-family="Times,serif" font-size="14.00">person_related_id → id</text>
</g>
<!-- person_has_addresses -->
<g id="node9" class="node">
<title>person_has_addresses</title>
<polygon fill="#d9d9d9" stroke="black" points="263.95,-670.5 263.95,-753.7 428.05,-753.7 428.05,-670.5 263.95,-670.5"/>
<text text-anchor="middle" x="346" y="-737.1" font-family="Times,serif" font-size="14.00">Person_has_addresses</text>
<polyline fill="none" stroke="black" points="263.95,-728.9 428.05,-728.9"/>
<text text-anchor="start" x="271.95" y="-712.3" font-family="Times,serif" font-size="14.00">person_id : integer</text>
<text text-anchor="start" x="271.95" y="-695.5" font-family="Times,serif" font-size="14.00"> address_id : integer</text>
<text text-anchor="start" x="271.95" y="-678.7" font-family="Times,serif" font-size="14.00"> date_occupation : varchar</text>
</g>
<!-- person_has_addresses&#45;&gt;addresses -->
<g id="edge11" class="edge">
<title>person_has_addresses-&gt;addresses</title>
<path fill="none" stroke="#cab2d6" d="M332.48,-658.68C332.48,-658.68 332.48,-497.72 332.48,-497.72"/>
<polygon fill="#cab2d6" stroke="#cab2d6" points="328.98,-658.68 332.48,-668.68 335.98,-658.68 328.98,-658.68"/>
<polygon fill="#cab2d6" stroke="#cab2d6" points="335.98,-497.72 332.48,-487.72 328.98,-497.72 335.98,-497.72"/>
<text text-anchor="middle" x="382.13" y="-553" font-family="Times,serif" font-size="14.00">address_id → id</text>
</g>
<!-- person_has_addresses&#45;&gt;persons -->
<g id="edge12" class="edge">
<title>person_has_addresses-&gt;persons</title>
<path fill="none" stroke="#cab2d6" d="M423.63,-658.68C423.63,-658.68 423.63,-506.18 423.63,-506.18"/>
<polygon fill="#cab2d6" stroke="#cab2d6" points="420.13,-658.68 423.63,-668.68 427.13,-658.68 420.13,-658.68"/>
<polygon fill="#cab2d6" stroke="#cab2d6" points="427.13,-506.18 423.63,-496.18 420.13,-506.18 427.13,-506.18"/>
<text text-anchor="middle" x="507.8" y="-553" font-family="Times,serif" font-size="14.00">person_id → id</text>
</g>
</g>
</svg>